<svg id="Layer_1" data-name="Layer 1" xmlns="http://www.w3.org/2000/svg" viewBox="0 0 146.1 146.6"><defs><style>.cls-1{fill:#b3b0a1;}.cls-2,.cls-5,.cls-6{fill:none;stroke-miterlimit:10;}.cls-2{stroke:#1d1d1b;}.cls-2,.cls-5{stroke-width:3px;}.cls-3{fill:#fff;}.cls-4{fill:#dfd7d7;}.cls-5,.cls-6{stroke:#526760;}.cls-6{stroke-width:5px;}</style></defs><rect class="cls-1" x="1.5" y="1.61" width="143.1" height="143.49" rx="10"/><rect class="cls-2" x="1.5" y="1.61" width="143.1" height="143.49" rx="10"/><path class="cls-3" d="M43.57,22H99.89A3.93,3.93,0,0,1,103.82,26V128.23A9.83,9.83,0,0,1,94,138.06H49.47a9.83,9.83,0,0,1-9.83-9.83V26A3.93,3.93,0,0,1,43.57,22Z"/><path class="cls-4" d="M42,23.57H70.42a0,0,0,0,1,0,0V55.76a0,0,0,0,1,0,0H39a0,0,0,0,1,0,0V26.57A3,3,0,0,1,42,23.57Z"/><line class="cls-5" x1="41.04" y1="55.53" x2="101.29" y2="55.53"/><path class="cls-2" d="M73.37,24.7C75.55,14.55,79.59,10.85,83,9.41c7.1-3,15.72,2,18.88-1.7,1.46-1.68,1-4.3.42-6.14" transform="translate(-1.64 -1.13)"/><path class="cls-6" d="M43.72,23.1H97.36A3.93,3.93,0,0,1,101.29,27v99.45a9.83,9.83,0,0,1-9.83,9.83H49.61a9.83,9.83,0,0,1-9.83-9.83V27a3.93,3.93,0,0,1,3.93-3.93Z"/><line class="cls-5" x1="71.17" y1="24.56" x2="71.17" y2="55.53"/></svg>