<svg id="Layer_1" data-name="Layer 1" xmlns="http://www.w3.org/2000/svg" viewBox="0 0 49.82 50.16"><defs><style>.cls-1{fill:#b3b0a1;}.cls-2,.cls-5{fill:none;stroke-miterlimit:10;}.cls-2{stroke:#1d1d1b;}.cls-3{fill:#fff;}.cls-4{fill:#dfd7d7;}.cls-5{stroke:#526760;}</style></defs><rect class="cls-1" x="0.5" y="0.5" width="48.82" height="49.16" rx="10"/><rect class="cls-2" x="0.5" y="0.5" width="48.82" height="49.16" rx="10"/><path class="cls-3" d="M17.49,7.86H30.61a3.93,3.93,0,0,1,3.93,3.93V36.28a9.83,9.83,0,0,1-9.83,9.83H23.39a9.83,9.83,0,0,1-9.83-9.83V11.79a3.93,3.93,0,0,1,3.93-3.93Z"/><path class="cls-4" d="M16.56,8.36h7.28a0,0,0,0,1,0,0V19a0,0,0,0,1,0,0H13.56a0,0,0,0,1,0,0V11.36A3,3,0,0,1,16.56,8.36Z"/><line class="cls-5" x1="13.99" y1="18.98" x2="34.55" y2="18.98"/><path class="cls-2" d="M24.32,8.14c.71-3.57,2-4.87,3.15-5.38,2.32-1,5.14.69,6.18-.6A2.48,2.48,0,0,0,33.78,0" transform="translate(-0.05 0.22)"/><path class="cls-5" d="M17.49,7.86H30.61a3.93,3.93,0,0,1,3.93,3.93V36.28a9.83,9.83,0,0,1-9.83,9.83H23.39a9.83,9.83,0,0,1-9.83-9.83V11.79a3.93,3.93,0,0,1,3.93-3.93Z"/><line class="cls-5" x1="24.27" y1="8.36" x2="24.27" y2="18.98"/></svg>